<?xml version="1.0" encoding="UTF-8" standalone="no"?>
<!DOCTYPE svg PUBLIC "-//W3C//DTD SVG 1.1//EN" "http://www.w3.org/Graphics/SVG/1.1/DTD/svg11.dtd">
<svg width="100%" height="100%" viewBox="0 0 572 171" version="1.1" xmlns="http://www.w3.org/2000/svg" xmlns:xlink="http://www.w3.org/1999/xlink" xml:space="preserve" xmlns:serif="http://www.serif.com/" style="fill-rule:evenodd;clip-rule:evenodd;stroke-linejoin:round;stroke-miterlimit:2;">
    <g transform="matrix(2.0129,0,0,2.0129,-4563.14,-11716.3)">
        <g transform="matrix(1.54753,0,0,2.39537,-1755.51,-5089.5)">
            <path d="M2599.28,4572.94L2599.28,4554.66L2654.13,4554.66L2654.13,4558.34L2641.78,4569.74C2628.01,4564.47 2610.57,4565.9 2599.28,4572.94ZM2654.13,4564.41L2654.13,4590.1L2626.28,4590.1L2654.13,4564.41ZM2619.71,4590.1L2599.28,4590.1L2599.28,4578.27C2608.24,4570.02 2625.4,4567.67 2638.68,4572.6L2619.71,4590.1Z" style="fill:url(#_Linear1);"/>
        </g>
        <g transform="matrix(1.05216,0,0,1.05216,-760.412,454.882)">
            <g transform="matrix(38.8912,0,0,38.8912,2982.92,5128.16)">
                <path d="M0.24,-0.634L0.24,-0L0.335,-0L0.335,-0.634L0.573,-0.634L0.573,-0.714L0.002,-0.714L0.002,-0.634L0.24,-0.634Z" style="fill:rgb(35,31,32);fill-rule:nonzero;"/>
            </g>
            <g transform="matrix(38.8912,0,0,38.8912,3005.24,5128.16)">
                <path d="M0.58,-0.499L0.675,-0.499C0.67,-0.537 0.658,-0.571 0.641,-0.6C0.624,-0.628 0.602,-0.653 0.576,-0.672C0.55,-0.691 0.52,-0.706 0.487,-0.716C0.454,-0.726 0.418,-0.731 0.381,-0.731C0.326,-0.731 0.278,-0.721 0.236,-0.702C0.193,-0.682 0.158,-0.655 0.13,-0.621C0.101,-0.587 0.08,-0.547 0.065,-0.502C0.05,-0.456 0.043,-0.407 0.043,-0.355C0.043,-0.303 0.05,-0.254 0.064,-0.209C0.077,-0.164 0.098,-0.124 0.125,-0.091C0.152,-0.058 0.187,-0.032 0.228,-0.013C0.269,0.007 0.318,0.016 0.373,0.016C0.464,0.016 0.536,-0.009 0.589,-0.059C0.642,-0.109 0.673,-0.179 0.682,-0.269L0.587,-0.269C0.585,-0.24 0.579,-0.212 0.569,-0.187C0.559,-0.162 0.545,-0.14 0.528,-0.122C0.51,-0.103 0.489,-0.089 0.465,-0.079C0.44,-0.068 0.412,-0.063 0.381,-0.063C0.338,-0.063 0.302,-0.071 0.271,-0.087C0.24,-0.103 0.215,-0.125 0.196,-0.152C0.176,-0.179 0.161,-0.21 0.152,-0.247C0.143,-0.283 0.138,-0.321 0.138,-0.362C0.138,-0.399 0.143,-0.435 0.152,-0.47C0.161,-0.505 0.176,-0.536 0.196,-0.563C0.215,-0.59 0.24,-0.611 0.271,-0.627C0.301,-0.643 0.337,-0.651 0.38,-0.651C0.43,-0.651 0.473,-0.638 0.51,-0.613C0.546,-0.588 0.569,-0.55 0.58,-0.499Z" style="fill:rgb(35,31,32);fill-rule:nonzero;"/>
            </g>
            <g transform="matrix(38.8912,0,0,38.8912,3033.32,5128.16)">
                <path d="M0.078,-0.714L0.078,-0L0.173,-0L0.173,-0.327L0.549,-0.327L0.549,-0L0.644,-0L0.644,-0.714L0.549,-0.714L0.549,-0.407L0.173,-0.407L0.173,-0.714L0.078,-0.714Z" style="fill:rgb(35,31,32);fill-rule:nonzero;"/>
            </g>
            <g transform="matrix(38.8912,0,0,38.8912,3061.4,5128.16)">
                <path d="M0.133,-0.357C0.133,-0.393 0.138,-0.429 0.147,-0.464C0.156,-0.499 0.171,-0.53 0.191,-0.558C0.211,-0.586 0.237,-0.608 0.268,-0.626C0.299,-0.643 0.337,-0.651 0.38,-0.651C0.423,-0.651 0.461,-0.643 0.492,-0.626C0.523,-0.608 0.549,-0.586 0.569,-0.558C0.589,-0.53 0.604,-0.499 0.613,-0.464C0.622,-0.429 0.627,-0.393 0.627,-0.357C0.627,-0.321 0.622,-0.286 0.613,-0.251C0.604,-0.216 0.589,-0.184 0.569,-0.156C0.549,-0.128 0.523,-0.106 0.492,-0.089C0.461,-0.071 0.423,-0.063 0.38,-0.063C0.337,-0.063 0.299,-0.071 0.268,-0.089C0.237,-0.106 0.211,-0.128 0.191,-0.156C0.171,-0.184 0.156,-0.216 0.147,-0.251C0.138,-0.286 0.133,-0.321 0.133,-0.357ZM0.038,-0.357C0.038,-0.308 0.045,-0.262 0.06,-0.217C0.074,-0.171 0.095,-0.132 0.124,-0.097C0.153,-0.062 0.188,-0.035 0.231,-0.015C0.274,0.006 0.323,0.016 0.38,0.016C0.437,0.016 0.486,0.006 0.529,-0.015C0.572,-0.035 0.607,-0.062 0.636,-0.097C0.665,-0.132 0.686,-0.171 0.701,-0.217C0.715,-0.262 0.722,-0.308 0.722,-0.357C0.722,-0.406 0.715,-0.452 0.701,-0.498C0.686,-0.543 0.665,-0.582 0.636,-0.617C0.607,-0.652 0.572,-0.679 0.529,-0.7C0.486,-0.721 0.437,-0.731 0.38,-0.731C0.323,-0.731 0.274,-0.721 0.231,-0.7C0.188,-0.679 0.153,-0.652 0.124,-0.617C0.095,-0.582 0.074,-0.543 0.06,-0.498C0.045,-0.452 0.038,-0.406 0.038,-0.357Z" style="fill:rgb(35,31,32);fill-rule:nonzero;"/>
            </g>
            <g transform="matrix(38.8912,0,0,38.8912,3090.96,5128.16)">
                <path d="M0.648,-0.258L0.648,-0.714L0.553,-0.714L0.553,-0.258C0.553,-0.194 0.537,-0.146 0.506,-0.113C0.474,-0.08 0.428,-0.063 0.367,-0.063C0.303,-0.063 0.254,-0.08 0.22,-0.113C0.186,-0.146 0.169,-0.194 0.169,-0.258L0.169,-0.714L0.074,-0.714L0.074,-0.258C0.074,-0.163 0.1,-0.093 0.152,-0.05C0.203,-0.006 0.275,0.016 0.367,0.016C0.457,0.016 0.526,-0.007 0.575,-0.053C0.624,-0.098 0.648,-0.167 0.648,-0.258Z" style="fill:rgb(35,31,32);fill-rule:nonzero;"/>
            </g>
            <g transform="matrix(38.8912,0,0,38.8912,3119.03,5128.16)">
                <path d="M0.078,-0.714L0.078,-0L0.173,-0L0.173,-0.25L0.292,-0.361L0.55,-0L0.67,-0L0.357,-0.426L0.658,-0.714L0.535,-0.714L0.173,-0.358L0.173,-0.714L0.078,-0.714Z" style="fill:rgb(35,31,32);fill-rule:nonzero;"/>
            </g>
            <g transform="matrix(50,0,0,50,2982.92,5179.61)">
                <path d="M0.176,-0.237L0.024,-0.237C0.023,-0.193 0.031,-0.155 0.048,-0.123C0.065,-0.091 0.087,-0.065 0.116,-0.044C0.144,-0.023 0.177,-0.008 0.214,0.002C0.251,0.011 0.289,0.016 0.328,0.016C0.377,0.016 0.42,0.01 0.457,-0.001C0.494,-0.012 0.525,-0.028 0.55,-0.049C0.575,-0.069 0.593,-0.093 0.606,-0.121C0.619,-0.149 0.625,-0.179 0.625,-0.212C0.625,-0.252 0.616,-0.285 0.6,-0.311C0.583,-0.336 0.562,-0.357 0.539,-0.372C0.516,-0.387 0.492,-0.399 0.469,-0.406C0.445,-0.413 0.426,-0.417 0.413,-0.42C0.368,-0.431 0.332,-0.441 0.305,-0.448C0.277,-0.455 0.255,-0.463 0.24,-0.47C0.224,-0.477 0.213,-0.485 0.208,-0.494C0.203,-0.503 0.2,-0.514 0.2,-0.528C0.2,-0.543 0.203,-0.556 0.21,-0.566C0.217,-0.576 0.225,-0.584 0.236,-0.591C0.246,-0.598 0.257,-0.602 0.27,-0.605C0.283,-0.608 0.295,-0.609 0.308,-0.609C0.327,-0.609 0.345,-0.607 0.362,-0.604C0.378,-0.601 0.392,-0.595 0.405,-0.587C0.418,-0.579 0.428,-0.568 0.436,-0.554C0.443,-0.54 0.448,-0.522 0.449,-0.501L0.601,-0.501C0.601,-0.542 0.593,-0.578 0.578,-0.607C0.562,-0.636 0.541,-0.659 0.514,-0.678C0.487,-0.697 0.457,-0.71 0.423,-0.719C0.388,-0.727 0.352,-0.731 0.315,-0.731C0.283,-0.731 0.251,-0.727 0.219,-0.718C0.187,-0.709 0.158,-0.696 0.133,-0.678C0.108,-0.66 0.087,-0.638 0.072,-0.611C0.056,-0.584 0.048,-0.552 0.048,-0.515C0.048,-0.482 0.054,-0.455 0.067,-0.432C0.079,-0.409 0.095,-0.389 0.115,-0.374C0.135,-0.359 0.158,-0.346 0.183,-0.337C0.208,-0.327 0.234,-0.319 0.261,-0.312C0.287,-0.305 0.313,-0.298 0.338,-0.292C0.363,-0.286 0.386,-0.279 0.406,-0.271C0.426,-0.263 0.442,-0.253 0.455,-0.241C0.467,-0.229 0.473,-0.213 0.473,-0.194C0.473,-0.176 0.468,-0.161 0.459,-0.15C0.45,-0.138 0.438,-0.129 0.424,-0.122C0.41,-0.115 0.395,-0.111 0.379,-0.109C0.363,-0.106 0.348,-0.105 0.334,-0.105C0.313,-0.105 0.293,-0.108 0.274,-0.113C0.255,-0.117 0.238,-0.125 0.224,-0.136C0.209,-0.146 0.198,-0.159 0.189,-0.176C0.18,-0.193 0.176,-0.213 0.176,-0.237Z" style="fill:rgb(35,31,32);fill-rule:nonzero;"/>
            </g>
            <g transform="matrix(50,0,0,50,3015.37,5179.61)">
                <path d="M0.069,-0.714L0.069,-0L0.226,-0L0.226,-0.308L0.515,-0.308L0.515,-0L0.672,-0L0.672,-0.714L0.515,-0.714L0.515,-0.44L0.226,-0.44L0.226,-0.714L0.069,-0.714Z" style="fill:rgb(35,31,32);fill-rule:nonzero;"/>
            </g>
            <g transform="matrix(50,0,0,50,3052.42,5179.61)">
                <path d="M0.069,-0.714L0.069,-0L0.611,-0L0.611,-0.132L0.226,-0.132L0.226,-0.307L0.572,-0.307L0.572,-0.429L0.226,-0.429L0.226,-0.582L0.603,-0.582L0.603,-0.714L0.069,-0.714Z" style="fill:rgb(35,31,32);fill-rule:nonzero;"/>
            </g>
            <g transform="matrix(50,0,0,50,3084.82,5179.61)">
                <path d="M0.069,-0.714L0.069,-0L0.611,-0L0.611,-0.132L0.226,-0.132L0.226,-0.307L0.572,-0.307L0.572,-0.429L0.226,-0.429L0.226,-0.582L0.603,-0.582L0.603,-0.714L0.069,-0.714Z" style="fill:rgb(35,31,32);fill-rule:nonzero;"/>
            </g>
            <g transform="matrix(50,0,0,50,3117.22,5179.61)">
                <path d="M0.227,-0.582L0.227,-0L0.384,-0L0.384,-0.582L0.598,-0.582L0.598,-0.714L0.013,-0.714L0.013,-0.582L0.227,-0.582Z" style="fill:rgb(35,31,32);fill-rule:nonzero;"/>
            </g>
        </g>
    </g>
    <defs>
        <linearGradient id="_Linear1" x1="0" y1="0" x2="1" y2="0" gradientUnits="userSpaceOnUse" gradientTransform="matrix(1.08498e-15,17.7191,-17.7191,1.08498e-15,2626.7,4572.38)"><stop offset="0" style="stop-color:rgb(255,208,28);stop-opacity:1"/><stop offset="1" style="stop-color:rgb(244,123,35);stop-opacity:1"/></linearGradient>
    </defs>
</svg>
